<svg width="279" height="376" viewBox="0 0 259 356" fill="#1c1c1c" xmlns="http://www.w3.org/2000/svg">
<rect width="259" height="356" fill="#1c1c1c" rx="12"/>
<path d="M85.4176 184.331C86.3627 183.858 87.479 183.894 88.3929 184.425L124.416 205.37C125.926 206.248 126.448 208.196 125.582 209.724L111.035 235.394C110.169 236.924 108.239 237.454 106.725 236.577L53.5884 205.804C51.3958 204.534 51.4929 201.305 53.7574 200.172L85.4176 184.331Z" fill="#2cbe4e"/>
<path d="M135.234 158.337C136.205 157.855 137.351 157.892 138.289 158.437L175.384 180C176.935 180.902 177.462 182.9 176.558 184.455L161.495 210.387C160.599 211.929 158.634 212.457 157.092 211.569L102.627 180.208C100.381 178.915 100.48 175.626 102.8 174.471L135.234 158.337Z" fill="#2cbe4e"/>
<path d="M4.19713 318.786C4.20408 317.585 4.88256 316.489 5.9558 315.942L176.317 229.354C178.46 228.265 181 229.818 181 232.217V267.164C181 268.378 180.314 269.489 179.227 270.034L8.66936 355.654C6.51979 356.731 3.98614 355.164 4.00006 352.765L4.19713 318.786Z" fill="#2cbe4e"/>
<path d="M0.196526 268.825C0.203463 267.625 0.87882 266.528 1.94797 265.981L171.316 179.357C173.457 178.262 176 179.816 176 182.219V215.191C176 216.393 175.329 217.495 174.26 218.047L4.6952 305.637C2.54632 306.746 -0.0139445 305.179 5.71773e-05 302.762L0.196526 268.825Z" fill="#2cbe4e"/>
<path d="M234.284 77.1507C235.747 77.4358 236.468 79.1187 235.67 80.3899L210.186 121.007C209.276 122.456 207.131 122.286 206.457 120.711L185.177 70.9838C184.503 69.4092 185.851 67.7154 187.52 68.0404L234.284 77.1507Z" fill="#2cbe4e"/>
<path d="M39.0003 155.875C38.9848 154.663 39.6595 153.547 40.7411 152.996L195.081 74.3492C196.714 73.5173 198.712 74.2259 199.452 75.9L211.727 103.634C212.409 105.175 211.773 106.979 210.275 107.753L44.1085 193.639C41.9995 194.729 39.4792 193.22 39.4489 190.85L39.0003 155.875Z" fill="#2cbe4e"/>
<path d="M257.233 10.2485C258.735 10.5339 259.481 12.2357 258.663 13.509L229.406 59.0222C228.481 60.4609 226.304 60.2767 225.614 58.7018L201.184 2.97997C200.493 1.40484 201.849 -0.282651 203.546 0.0400202L257.233 10.2485Z" fill="#2cbe4e"/>
<path d="M38.0003 96.4269C37.9843 95.2171 38.6641 94.1079 39.7555 93.5622L214.18 6.34402C215.834 5.51719 217.864 6.23519 218.622 7.91518L232.719 39.1706C233.415 40.7154 232.777 42.5188 231.26 43.2879L43.2536 138.644C41.1134 139.73 38.5462 138.2 38.5152 135.821L38.0003 96.4269Z" fill="#2cbe4e"/>
</svg>
