<svg preserveAspectRatio="xMidYMid meet" viewBox="23.526 69.24817518248176 420.854 411.56934306569343" xmlns="http://www.w3.org/2000/svg" version="1.0" style="max-height: 500px" width="420.854" height="411.56934306569343">
<rect width="20000" height="20000" fill="#1c1c1c" rx="12"/>
<g stroke="none" fill="#2cbe4e" transform="translate(0.000000,537.000000) scale(0.100000,-0.100000)">
<path d="M1635 4564 c-358 -137 -679 -369 -890 -644 -75 -99 -77 -69 20 -368&#xA;48 -147 91 -272 96 -278 12 -14 90 -42 409 -144 239 -77 257 -81 281 -68 14 8&#xA;172 122 351 252 282 205 327 241 332 268 8 41 6 627 -3 657 -10 36 -454 362&#xA;-490 360 -9 -1 -56 -16 -106 -35z"/>
<path d="M2775 4494 c-71 -52 -166 -120 -210 -152 -128 -91 -115 -42 -115&#xA;-430 0 -256 3 -342 13 -354 9 -12 379 -285 470 -348 12 -8 63 -45 113 -81 50&#xA;-37 99 -69 110 -73 24 -7 629 186 656 210 20 19 178 494 178 536 0 35 -82 141&#xA;-214 277 -165 169 -333 294 -521 388 -140 71 -277 123 -316 122 -27 0 -62 -21&#xA;-164 -95z"/>
<path d="M2310 3388 c-1 -90 -1 -283 0 -430 l1 -268 -41 -38 c-44 -43 -50 -73&#xA;-25 -122 16 -32 61 -60 94 -60 59 0 104 49 103 114 -1 34 -6 46 -36 72 l-36&#xA;31 0 432 0 431 -30 0 -30 0 0 -162z"/>
<path d="M754 3034 c-21 -15 -126 -90 -232 -167 -138 -100 -194 -147 -199&#xA;-165 -10 -40 5 -247 26 -372 47 -274 145 -524 297 -757 88 -135 50 -123 378&#xA;-123 256 0 286 2 304 18 39 35 392 531 392 551 0 12 -6 36 -13 54 -8 18 -65&#xA;190 -127 382 -62 193 -119 362 -126 377 -13 24 -44 37 -323 128 -169 55 -315&#xA;100 -323 100 -8 0 -33 -12 -54 -26z"/>
<path d="M3555 2944 c-159 -52 -297 -103 -307 -112 -16 -17 -266 -768 -275&#xA;-827 -4 -27 18 -62 172 -275 98 -135 187 -255 199 -268 23 -23 23 -23 301 -23&#xA;243 1 281 3 297 18 24 22 129 184 177 275 90 169 172 419 206 627 21 136 30&#xA;322 17 348 -6 11 -109 91 -228 177 -155 112 -224 156 -243 155 -14 0 -156 -43&#xA;-316 -95z"/>
<path d="M5120 2634 l0 -375 186 3 c181 3 186 4 205 27 18 22 19 43 19 348 l0&#xA;324 -25 24 c-24 25 -26 25 -205 25 l-180 0 0 -376z m288 4 l2 -258 -85 0 -85&#xA;0 0 260 0 261 83 -3 82 -3 3 -257z"/>
<path d="M5860 3002 c0 -5 41 -93 90 -195 l90 -187 0 -180 0 -180 60 0 60 0 0&#xA;174 c0 96 4 185 9 198 5 13 48 103 95 201 l85 177 -69 0 -69 0 -52 -110 c-29&#xA;-60 -55 -110 -59 -110 -4 0 -30 50 -58 110 l-51 110 -65 0 c-36 0 -66 -4 -66&#xA;-8z"/>
<path d="M6670 2635 l0 -375 60 0 60 0 0 210 c0 116 3 210 8 210 4 0 45 -95&#xA;90 -210 l84 -210 69 0 69 0 0 375 0 376 -62 -3 -63 -3 -5 -208 -5 -207 -85&#xA;210 -85 210 -67 0 -68 0 0 -375z"/>
<path d="M7605 2998 c-8 -22 -175 -718 -175 -729 0 -6 24 -9 62 -7 l62 3 20&#xA;83 20 82 92 0 92 0 11 -47 c7 -27 16 -65 22 -85 l10 -38 60 0 61 0 -7 38 c-3&#xA;20 -43 188 -89 372 l-82 335 -77 3 c-56 2 -79 -1 -82 -10z m116 -330 c16 -62&#xA;29 -116 29 -120 0 -5 -30 -8 -66 -8 -58 0 -65 2 -60 18 3 9 12 49 21 87 24&#xA;109 36 147 42 142 2 -3 18 -56 34 -119z"/>
<path d="M8265 2997 c-3 -6 -4 -174 -3 -372 l3 -360 63 -3 62 -3 0 161 c0 108&#xA;4 160 11 160 6 0 45 -72 87 -160 l76 -160 68 0 67 0 -24 53 c-13 28 -46 99&#xA;-73 157 l-50 105 26 3 c47 5 83 24 93 49 5 13 9 89 9 169 0 150 -10 194 -45&#xA;208 -9 3 -95 6 -191 6 -131 0 -176 -3 -179 -13z m289 -113 c13 -33 6 -171 -8&#xA;-183 -9 -7 -41 -11 -83 -9 l-68 3 -3 103 -3 102 80 0 c63 0 80 -3 85 -16z"/>
<path d="M9045 2985 l-25 -24 0 -323 c1 -238 4 -327 13 -339 25 -33 55 -39&#xA;202 -39 142 0 147 1 170 25 28 27 28 42 25 505 -2 233 11 220 -202 220 -155 0&#xA;-159 -1 -183 -25z m263 -347 l2 -258 -85 0 -85 0 0 253 c0 140 3 257 7 261 4&#xA;4 41 5 83 4 l75 -3 3 -257z"/>
<path d="M9799 2984 c-23 -25 -24 -30 -24 -191 l0 -165 28 -24 c26 -22 37 -24&#xA;132 -24 122 0 118 4 113 -120 l-3 -75 -135 -5 -135 -5 0 -55 0 -55 168 -3 168&#xA;-2 30 29 29 29 0 162 c0 158 -1 161 -25 185 -22 23 -31 25 -122 25 -54 0 -104&#xA;4 -111 8 -9 6 -12 34 -10 103 l3 94 123 3 122 3 0 54 0 55 -163 0 c-163 0&#xA;-164 0 -188 -26z"/>
<path d="M10510 2955 l0 -55 65 0 65 0 0 -320 0 -320 65 0 65 0 0 320 0 320&#xA;65 0 65 0 0 55 0 55 -195 0 -195 0 0 -55z"/>
<path d="M11240 2635 l0 -375 190 0 191 0 -3 58 -3 57 -122 3 -123 3 0 99 0&#xA;100 105 0 105 0 0 55 0 55 -105 0 -105 0 0 105 0 105 115 0 115 0 0 55 0 55&#xA;-180 0 -180 0 0 -375z"/>
<path d="M11960 2635 l0 -375 60 0 60 0 0 160 c0 123 3 160 13 160 7 0 47 -72&#xA;89 -160 l76 -160 66 0 c36 0 66 2 66 4 0 2 -31 70 -70 151 -38 81 -70 151 -70&#xA;156 0 5 16 9 35 9 25 0 44 8 60 25 25 24 25 27 25 190 0 227 13 215 -230 215&#xA;l-180 0 0 -375z m288 163 c3 -113 4 -112 -103 -106 l-60 3 -3 103 -3 103 83&#xA;-3 83 -3 3 -97z"/>
<path d="M1888 1862 c-29 -12 -388 -512 -388 -541 0 -15 37 -140 82 -280 64&#xA;-196 88 -257 105 -268 33 -22 181 -61 323 -85 94 -16 170 -21 310 -22 198 -1&#xA;300 10 475 50 132 31 189 51 209 73 17 19 176 497 176 529 0 11 -26 56 -57 99&#xA;-32 44 -107 149 -168 233 -60 84 -124 168 -141 187 l-31 33 -439 -1 c-242 0&#xA;-447 -3 -456 -7z"/>
</g>
</svg>